<svg xmlns="http://www.w3.org/2000/svg" width="1630" height="826" viewBox="0 0 1630 826" role="img" aria-labelledby="title desc">
<title id="title">fig5 DAG task evidence graph</title>
<desc id="desc">Derived audit graph. Arrows point from a consumer to its required producer.</desc>
<defs><marker id="arrow" viewBox="0 0 10 10" refX="9" refY="5" markerWidth="7" markerHeight="7" orient="auto-start-reverse"><path d="M 0 0 L 10 5 L 0 10 z" fill="#64748B"/></marker></defs>
<rect width="100%" height="100%" fill="#FFFFFF"/>
<text x="40" y="42" font-family="Arial, sans-serif" font-size="24" font-weight="700" fill="#0F172A">fig5 · Fig.6</text>
<text x="40" y="68" font-family="Arial, sans-serif" font-size="13" fill="#475569">consumer —requires/consumes→ producer · status colors match ledger</text>
<path d="M 1290.0 386.0 C 1095.0 386.0, 1095.0 338.0, 900.0 338.0" fill="none" stroke="#94A3B8" stroke-width="1.2" marker-end="url(#arrow)"/>
<text x="1095.0" y="359.0" text-anchor="middle" font-family="Arial, sans-serif" font-size="9" fill="#64748B">orchestrates</text>
<path d="M 1290.0 386.0 C 1095.0 386.0, 1095.0 146.0, 900.0 146.0" fill="none" stroke="#94A3B8" stroke-width="1.2" marker-end="url(#arrow)"/>
<text x="1095.0" y="263.0" text-anchor="middle" font-family="Arial, sans-serif" font-size="9" fill="#64748B">orchestrates</text>
<path d="M 1290.0 386.0 C 1095.0 386.0, 1095.0 242.0, 900.0 242.0" fill="none" stroke="#94A3B8" stroke-width="1.2" marker-end="url(#arrow)"/>
<text x="1095.0" y="311.0" text-anchor="middle" font-family="Arial, sans-serif" font-size="9" fill="#64748B">orchestrates</text>
<path d="M 1290.0 386.0 C 1095.0 386.0, 1095.0 626.0, 900.0 626.0" fill="none" stroke="#94A3B8" stroke-width="1.2" marker-end="url(#arrow)"/>
<text x="1095.0" y="503.0" text-anchor="middle" font-family="Arial, sans-serif" font-size="9" fill="#64748B">orchestrates</text>
<path d="M 1290.0 386.0 C 1095.0 386.0, 1095.0 530.0, 900.0 530.0" fill="none" stroke="#94A3B8" stroke-width="1.2" marker-end="url(#arrow)"/>
<text x="1095.0" y="455.0" text-anchor="middle" font-family="Arial, sans-serif" font-size="9" fill="#64748B">orchestrates</text>
<path d="M 1290.0 386.0 C 1250.0 386.0, 1250.0 386.0, 1210.0 386.0" fill="none" stroke="#94A3B8" stroke-width="1.2" marker-end="url(#arrow)"/>
<text x="1250.0" y="383.0" text-anchor="middle" font-family="Arial, sans-serif" font-size="9" fill="#64748B">orchestrates</text>
<path d="M 360.0 386.0 C 320.0 386.0, 320.0 338.0, 280.0 338.0" fill="none" stroke="#94A3B8" stroke-width="1.2" marker-end="url(#arrow)"/>
<text x="320.0" y="359.0" text-anchor="middle" font-family="Arial, sans-serif" font-size="9" fill="#64748B">requires</text>
<path d="M 670.0 338.0 C 630.0 338.0, 630.0 386.0, 590.0 386.0" fill="none" stroke="#94A3B8" stroke-width="1.2" marker-end="url(#arrow)"/>
<text x="630.0" y="359.0" text-anchor="middle" font-family="Arial, sans-serif" font-size="9" fill="#64748B">requires</text>
<path d="M 670.0 146.0 C 630.0 146.0, 630.0 386.0, 590.0 386.0" fill="none" stroke="#94A3B8" stroke-width="1.2" marker-end="url(#arrow)"/>
<text x="630.0" y="263.0" text-anchor="middle" font-family="Arial, sans-serif" font-size="9" fill="#64748B">requires</text>
<path d="M 670.0 242.0 C 630.0 242.0, 630.0 386.0, 590.0 386.0" fill="none" stroke="#94A3B8" stroke-width="1.2" marker-end="url(#arrow)"/>
<text x="630.0" y="311.0" text-anchor="middle" font-family="Arial, sans-serif" font-size="9" fill="#64748B">requires</text>
<path d="M 670.0 626.0 C 630.0 626.0, 630.0 386.0, 590.0 386.0" fill="none" stroke="#94A3B8" stroke-width="1.2" marker-end="url(#arrow)"/>
<text x="630.0" y="503.0" text-anchor="middle" font-family="Arial, sans-serif" font-size="9" fill="#64748B">requires</text>
<path d="M 670.0 530.0 C 630.0 530.0, 630.0 386.0, 590.0 386.0" fill="none" stroke="#94A3B8" stroke-width="1.2" marker-end="url(#arrow)"/>
<text x="630.0" y="455.0" text-anchor="middle" font-family="Arial, sans-serif" font-size="9" fill="#64748B">requires</text>
<path d="M 670.0 434.0 C 475.0 434.0, 475.0 338.0, 280.0 338.0" fill="none" stroke="#94A3B8" stroke-width="1.2" marker-end="url(#arrow)"/>
<text x="475.0" y="383.0" text-anchor="middle" font-family="Arial, sans-serif" font-size="9" fill="#64748B">requires</text>
<path d="M 670.0 434.0 C 630.0 434.0, 630.0 386.0, 590.0 386.0" fill="none" stroke="#94A3B8" stroke-width="1.2" marker-end="url(#arrow)"/>
<text x="630.0" y="407.0" text-anchor="middle" font-family="Arial, sans-serif" font-size="9" fill="#64748B">requires</text>
<path d="M 980.0 386.0 C 940.0 386.0, 940.0 434.0, 900.0 434.0" fill="none" stroke="#94A3B8" stroke-width="1.2" marker-end="url(#arrow)"/>
<text x="940.0" y="407.0" text-anchor="middle" font-family="Arial, sans-serif" font-size="9" fill="#64748B">requires</text>
<g id="n_fig5_all" data-canonical-id="fig5.all">
<rect x="1290" y="350.0" width="230" height="72" rx="9" fill="#DBEAFE" stroke="#1D4ED8" stroke-width="1.5"/>
<text x="1302" y="371.0" font-family="Arial, sans-serif" font-size="12" font-weight="700" fill="#111827">all</text>
<text x="1302" y="412.0" font-family="Arial, sans-serif" font-size="10" fill="#1D4ED8">operational-only</text>
</g>
<g id="n_fig5_trial_sampling" data-canonical-id="fig5.trial_sampling">
<rect x="50" y="302.0" width="230" height="72" rx="9" fill="#DBEAFE" stroke="#1D4ED8" stroke-width="1.5"/>
<text x="62" y="323.0" font-family="Arial, sans-serif" font-size="12" font-weight="700" fill="#111827">trial_sampling</text>
<text x="62" y="364.0" font-family="Arial, sans-serif" font-size="10" fill="#1D4ED8">operational-only</text>
</g>
<g id="n_fig5_preprobe_support_bank" data-canonical-id="fig5.preprobe_support_bank">
<rect x="360" y="350.0" width="230" height="72" rx="9" fill="#FEE2E2" stroke="#B91C1C" stroke-width="1.5" stroke-dasharray="5 3"/>
<text x="372" y="371.0" font-family="Arial, sans-serif" font-size="12" font-weight="700" fill="#111827">preprobe_support_bank</text>
<text x="372" y="412.0" font-family="Arial, sans-serif" font-size="10" fill="#B91C1C">conflicted</text>
</g>
<g id="n_fig5_preprobe_support" data-canonical-id="fig5.preprobe_support">
<rect x="670" y="302.0" width="230" height="72" rx="9" fill="#FEF3C7" stroke="#B45309" stroke-width="1.5"/>
<text x="682" y="323.0" font-family="Arial, sans-serif" font-size="12" font-weight="700" fill="#111827">preprobe_support</text>
<text x="682" y="364.0" font-family="Arial, sans-serif" font-size="10" fill="#B45309">bounded</text>
</g>
<g id="n_fig5_early_firing" data-canonical-id="fig5.early_firing">
<rect x="670" y="110.0" width="230" height="72" rx="9" fill="#FEF3C7" stroke="#B45309" stroke-width="1.5"/>
<text x="682" y="131.0" font-family="Arial, sans-serif" font-size="12" font-weight="700" fill="#111827">early_firing</text>
<text x="682" y="172.0" font-family="Arial, sans-serif" font-size="10" fill="#B45309">bounded</text>
</g>
<g id="n_fig5_local_events" data-canonical-id="fig5.local_events">
<rect x="670" y="206.0" width="230" height="72" rx="9" fill="#FEF3C7" stroke="#B45309" stroke-width="1.5"/>
<text x="682" y="227.0" font-family="Arial, sans-serif" font-size="12" font-weight="700" fill="#111827">local_events</text>
<text x="682" y="268.0" font-family="Arial, sans-serif" font-size="10" fill="#B45309">bounded</text>
</g>
<g id="n_fig5_support_perturbation" data-canonical-id="fig5.support_perturbation">
<rect x="670" y="590.0" width="230" height="72" rx="9" fill="#FEF3C7" stroke="#B45309" stroke-width="1.5"/>
<text x="682" y="611.0" font-family="Arial, sans-serif" font-size="12" font-weight="700" fill="#111827">support_perturbation</text>
<text x="682" y="652.0" font-family="Arial, sans-serif" font-size="10" fill="#B45309">bounded</text>
</g>
<g id="n_fig5_supplement" data-canonical-id="fig5.supplement">
<rect x="670" y="494.0" width="230" height="72" rx="9" fill="#FEF3C7" stroke="#B45309" stroke-width="1.5"/>
<text x="682" y="515.0" font-family="Arial, sans-serif" font-size="12" font-weight="700" fill="#111827">supplement</text>
<text x="682" y="556.0" font-family="Arial, sans-serif" font-size="10" fill="#B45309">bounded</text>
</g>
<g id="n_fig5_probe_stsp_update_bank" data-canonical-id="fig5.probe_stsp_update_bank">
<rect x="670" y="398.0" width="230" height="72" rx="9" fill="#FEE2E2" stroke="#B91C1C" stroke-width="1.5" stroke-dasharray="5 3"/>
<text x="682" y="419.0" font-family="Arial, sans-serif" font-size="12" font-weight="700" fill="#111827">probe_stsp_update_bank</text>
<text x="682" y="460.0" font-family="Arial, sans-serif" font-size="10" fill="#B91C1C">conflicted</text>
</g>
<g id="n_fig5_postprobe_stsp_update" data-canonical-id="fig5.postprobe_stsp_update">
<rect x="980" y="350.0" width="230" height="72" rx="9" fill="#FEF3C7" stroke="#B45309" stroke-width="1.5"/>
<text x="992" y="371.0" font-family="Arial, sans-serif" font-size="12" font-weight="700" fill="#111827">postprobe_stsp_update</text>
<text x="992" y="412.0" font-family="Arial, sans-serif" font-size="10" fill="#B45309">bounded</text>
</g>
<g id="n_final_six_fig5_final_statistics" data-canonical-id="final_six.fig5.final-statistics">
<rect x="50" y="398.0" width="230" height="72" rx="9" fill="#DCFCE7" stroke="#15803D" stroke-width="1.5"/>
<text x="62" y="419.0" font-family="Arial, sans-serif" font-size="12" font-weight="700" fill="#111827">final-statistics</text>
<text x="62" y="460.0" font-family="Arial, sans-serif" font-size="10" fill="#15803D">supported</text>
</g>
<rect x="40" y="778" width="16" height="16" rx="3" fill="#DCFCE7" stroke="#15803D"/>
<text x="62" y="790" font-family="Arial, sans-serif" font-size="10" fill="#334155">supported</text>
<rect x="190" y="778" width="16" height="16" rx="3" fill="#FEF3C7" stroke="#B45309"/>
<text x="212" y="790" font-family="Arial, sans-serif" font-size="10" fill="#334155">bounded</text>
<rect x="340" y="778" width="16" height="16" rx="3" fill="#DBEAFE" stroke="#1D4ED8"/>
<text x="362" y="790" font-family="Arial, sans-serif" font-size="10" fill="#334155">operational-only</text>
<rect x="490" y="778" width="16" height="16" rx="3" fill="#FEE2E2" stroke="#B91C1C"/>
<text x="512" y="790" font-family="Arial, sans-serif" font-size="10" fill="#334155">conflicted</text>
<rect x="640" y="778" width="16" height="16" rx="3" fill="#F3F4F6" stroke="#6B7280"/>
<text x="662" y="790" font-family="Arial, sans-serif" font-size="10" fill="#334155">unavailable</text>
</svg>
